<svg width="96" height="96" xmlns="http://www.w3.org/2000/svg">

 <g>
  <title>background</title>
  <rect fill="none" id="canvas_background" height="402" width="582" y="-1" x="-1"/>
 </g>
 <g>
  <title>Layer 1</title>
  <path fill="#0caea3" id="svg_1" d="m65.5,36.6c0,0 0.1,0 0.2,0c0.8,-0.2 1.7,-0.5 2.6,-0.7l0,-7c0,-2.6 2,-4.6 4.6,-4.6l10.1,0c2.6,0 4.6,1.9 4.6,4.6l0,5.9l3.4,0c2.7,0 4.8,2.2 4.8,4.8l0,8c0,2.7 -2.2,4.8 -4.8,4.8l-3.5,0c0,3.5 0,7 0,10.5c0.3,0.1 0.7,0.1 0.9,0.1c0.9,0 1.8,-0.2 2.7,-0.2c2.7,0 4.8,2.2 4.8,4.8l0,7c0,2 -1.2,3.8 -3.1,4.5c-2,0.7 -5.2,1.2 -7.3,1.2c-10.7,0 -17.4,-5.2 -17.4,-16.5c0,-3.8 0,-7.6 0,-11.4l-1.1,0c-0.2,0 -0.3,0 -0.5,0c0,3.7 0,7.5 0,11.2c0,3.5 0,7 0,10.5c0,3.1 -2.1,5.3 -5.2,5.3c-2.1,0 -4.1,0 -6.2,0c-0.8,0 -1.8,0.1 -2.7,0c-2.5,0 -4.5,-1.4 -5.2,-3.6c-4.7,3.2 -12.1,4.7 -17.6,4.7c-20.5,-0.1 -29.6,-11.7 -29.6,-31.8c0,-19.2 7.5,-33.1 27.9,-33.1c4.7,0 13.2,0.6 17.3,3.5c1.3,0.9 2,2.4 2,3.9l0,0.5l-2,8.5c-0.4,2.8 -3.3,4.9 -6.1,4c-3.3,-1 -5.4,-1.4 -9,-1.4c-8.9,0 -10.2,5.3 -10.2,13.5c0,6.1 0.6,13.3 8.1,13.3c0.5,0 1.1,0 1.8,0l0,-3.2l-2.9,0c-2.7,0 -4.8,-2.2 -4.8,-4.8l0,-8.6c0,-2.7 2.2,-4.8 4.8,-4.8l17.6,0c0.9,0 1.7,0.2 2.5,0.7l0,-1c0,-1.5 0.7,-2.9 1.8,-3.8c-1.4,-1.8 -2.3,-4.1 -2.3,-6.5c0,-5.8 4.6,-10.5 10.4,-10.5c5.8,0 10.4,4.7 10.4,10.5c0,2.5 -0.9,4.8 -2.3,6.6c0.1,0.1 0.3,0.3 0.5,0.6l0,0zm-21.1,7.3l-17.6,0c-0.5,0 -0.8,0.4 -0.8,0.8l0,8.6c0,0.5 0.4,0.8 0.8,0.8l6.9,0l0,10.7c0,0 -1.5,0.5 -5.8,0.5c-5,0 -12.1,-1.8 -12.1,-17.3c0,-15.5 7.3,-17.5 14.2,-17.5c6,0 8.5,1 10.2,1.6c0.5,0.2 1,-0.4 1,-0.8l2,-8.3c0,-0.2 -0.1,-0.5 -0.3,-0.6c-0.7,-0.5 -4.7,-2.7 -14.9,-2.7c-11.9,-0.1 -24,4.9 -24,29c0,24.1 13.8,27.7 25.5,27.7c9.7,0 15.5,-4.1 15.5,-4.1c0.2,-0.1 0.3,-0.5 0.3,-0.6l0,-27c0,-0.4 -0.4,-0.8 -0.9,-0.8l0,0zm18.8,-14.6l0,0c0,-3.6 -2.9,-6.5 -6.4,-6.5c-3.5,0 -6.4,2.9 -6.4,6.5c0,3.6 2.9,6.5 6.4,6.5c3.5,0 6.4,-2.9 6.4,-6.5l0,0zm-0.7,34.2l0,0c0,-1.3 0,-24 0,-24c0,-0.5 -0.4,-0.8 -0.8,-0.8l-9.9,0c-0.5,0 -0.9,0.5 -0.9,0.9c0,0 0,28.9 0,34.4c0,1 0.6,1.3 1.4,1.3c0,0 4.2,0 8.9,0c1,0 1.2,-0.5 1.2,-1.3c0.1,-1.8 0.1,-9.1 0.1,-10.5l0,0zm28.5,-24.8l0,0l-7.5,0l0,-9.8c0,-0.4 -0.2,-0.6 -0.6,-0.6l-10.1,0c-0.4,0 -0.6,0.2 -0.6,0.6l0,10.1c0,0 -5.1,1.2 -5.4,1.3c-0.3,0.1 -0.6,0.4 -0.6,0.8l0,6.4c0,0.5 0.4,0.8 0.8,0.8l5.2,0c0,0 0,6.7 0,15.4c0,11.4 8,12.5 13.4,12.5c2.5,0 5.4,-0.8 5.9,-1c0.3,-0.1 0.5,-0.4 0.5,-0.8l0,-7c0,-0.5 -0.4,-0.8 -0.8,-0.8c-0.4,0 -1.5,0.2 -2.7,0.2c-3.7,0 -4.9,-1.7 -4.9,-3.9c0,-2.2 0,-14.6 0,-14.6l7.4,0c0.5,0 0.8,-0.4 0.8,-0.8l0,-8c0.1,-0.4 -0.3,-0.8 -0.8,-0.8z"/>
 </g>
</svg>