<svg width="32" height="28.268" xmlns="http://www.w3.org/2000/svg">

 <g>
  <title>background</title>
  <rect fill="none" id="canvas_background" height="402" width="582" y="-1" x="-1"/>
 </g>
 <g>
  <title>Layer 1</title>
  <path stroke="null" id="svg_3" fill="#0caea3" d="m16,28.268l-16,-8.535l0,-11.199l16,-8.534l16,8.534l0,11.199l-16,8.535zm-14,-9.734l14,7.466l14,-7.466l0,-8.801l-14,-7.465l-14,7.465l0,8.801zm29,0.6l0.01,0l-0.01,0z"/>
  <path id="svg_5" fill="#0caea3" d="m16,18.268l-15.471,-8.251c-0.487,-0.261 -0.671,-0.867 -0.411,-1.354c0.259,-0.486 0.864,-0.67 1.353,-0.412l14.529,7.749l14.529,-7.749c0.489,-0.257 1.093,-0.074 1.353,0.412c0.26,0.487 0.076,1.093 -0.412,1.354l-15.47,8.251z"/>
  <path id="svg_7" fill="#0caea3" d="m30.999,20.134c-0.159,0 -0.32,-0.038 -0.47,-0.117l-14.529,-7.749l-14.529,7.749c-0.487,0.258 -1.093,0.075 -1.353,-0.412c-0.26,-0.487 -0.076,-1.093 0.412,-1.354l15.47,-8.251l15.471,8.251c0.487,0.261 0.671,0.866 0.412,1.354c-0.18,0.336 -0.526,0.529 -0.884,0.529z"/>
  <path stroke="null" stroke-width="0" stroke-dasharray="5,2,2,2" id="svg_9" fill="#0caea3" d="m16,28.195069c-0.552,0 -1,-0.447 -1,-1l0,-10c0,-0.553 0.448,-1 1,-1s1,0.447 1,1l0,10c0,0.553 -0.448,1 -1,1z"/>
  <path id="svg_11" fill="#0caea3" d="m16,12.134c-0.552,0 -1,-0.447 -1,-1l0,-10c0,-0.553 0.448,-1 1,-1s1,0.447 1,1l0,10c0,0.553 -0.448,1 -1,1z"/>
 </g>
</svg>