<svg width="100.00000000000001" height="100.00000000000001" xmlns="http://www.w3.org/2000/svg">

 <g>
  <title>background</title>
  <rect fill="none" id="canvas_background" height="402" width="582" y="-1" x="-1"/>
 </g>
 <g>
  <title>Layer 1</title>
  <path fill="#0caea3" id="linkedin" d="m66.8,75.4l0,-22c0,0 -1.2,-4.6 -5.6,-4.4c-4.4,0.2 -5.8,0.9 -7.8,3.3l0,23.1l-11.3,0l0,-34.9l11.2,0l0,5.1c0,0 3.6,-7.1 11.2,-6.6c6.9,0.5 12.1,4.7 13.2,13.9l0.3,0l0,22.5l-11.2,0zm-38.1,-39.4c-3.7,0 -6.7,-3 -6.7,-6.8c0,-3.7 3,-6.8 6.7,-6.8s6.7,3 6.7,6.8c0,3.7 -3,6.8 -6.7,6.8zm5.6,39.4l-11.2,0l0,-34.9l11.2,0l0,34.9z"/>
 </g>
</svg>